<svg data-v-fde0c5aa="" xmlns="http://www.w3.org/2000/svg" viewBox="0 0 300 300"  class="iconLeft"><!----><defs data-v-fde0c5aa="" ><!----></defs><rect data-v-fde0c5aa="" fill="none" x="0" y="0" width="300px" height="300px" class="sa"></rect><defs data-v-fde0c5aa=""><!----></defs><g data-v-fde0c5aa="" id="10191f16-b3ba-427d-8141-1584feca2d1b" fill="#ffffff" transform="matrix(3.1202216808110936,0,0,3.1202216808110936,120.86931189383988,127.26918432253115)"><path d="M4.66 5.97L3.18 6.03L3.18 9.54L4.03 9.71L4.03 9.71Q4.54 9.77 4.96 9.77L4.96 9.77L4.96 9.77Q6.03 9.77 6.70 9.22L6.70 9.22L6.70 9.22Q7.38 8.66 7.38 7.74L7.38 7.74L7.38 7.74Q7.38 6.83 6.67 6.40L6.67 6.40L6.67 6.40Q5.96 5.97 4.66 5.97L4.66 5.97ZM5.22 10.72L2.31 10.64L0.46 10.68L0.46 10.20L1.32 10.04L1.43 8.20L1.43 3.82L1.32 1.98L0.46 1.83L0.46 1.35L2.31 1.38L5.25 1.31L5.25 1.31Q6.71 1.31 7.52 1.82L7.52 1.82L7.52 1.82Q8.33 2.32 8.33 3.35L8.33 3.35L8.33 3.35Q8.33 4.00 7.90 4.56L7.90 4.56L7.90 4.56Q7.47 5.12 6.26 5.30L6.26 5.30L6.26 5.30Q7.82 5.30 8.56 5.90L8.56 5.90L8.56 5.90Q9.31 6.49 9.31 7.49L9.31 7.49L9.31 7.49Q9.31 9.01 8.19 9.87L8.19 9.87L8.19 9.87Q7.07 10.72 5.22 10.72L5.22 10.72ZM3.18 2.31L3.18 5.09L4.21 5.11L4.21 5.11Q5.22 5.11 5.81 4.72L5.81 4.72L5.81 4.72Q6.41 4.33 6.41 3.55L6.41 3.55L6.41 3.55Q6.41 2.87 5.94 2.51L5.94 2.51L5.94 2.51Q5.47 2.16 4.61 2.16L4.61 2.16L4.61 2.16Q4.46 2.16 4.27 2.17L4.27 2.17L4.27 2.17Q4.09 2.18 3.90 2.21L3.90 2.21L3.90 2.21Q3.72 2.24 3.56 2.25L3.56 2.25L3.56 2.25Q3.40 2.26 3.18 2.31L3.18 2.31ZM10.01 1.12L10.01 1.12L10.01 1.12Q10.01 0.73 10.29 0.44L10.29 0.44L10.29 0.44Q10.58 0.15 10.97 0.15L10.97 0.15L10.97 0.15Q11.37 0.15 11.65 0.44L11.65 0.44L11.65 0.44Q11.94 0.73 11.94 1.12L11.94 1.12L11.94 1.12Q11.94 1.53 11.65 1.81L11.65 1.81L11.65 1.81Q11.37 2.10 10.97 2.10L10.97 2.10L10.97 2.10Q10.58 2.10 10.29 1.81L10.29 1.81L10.29 1.81Q10.01 1.53 10.01 1.12ZM11.80 5.09L11.80 7.94L11.80 7.94Q11.80 8.35 11.81 8.72L11.81 8.72L11.81 8.72Q11.82 9.08 11.87 9.53L11.87 9.53L11.87 9.53Q11.91 9.98 11.94 10.04L11.94 10.04L12.69 10.20L12.69 10.68L10.97 10.64L9.26 10.68L9.26 10.20L10.01 10.04L10.08 9.39L10.08 9.39Q10.10 9.09 10.13 8.70L10.13 8.70L10.13 8.70Q10.15 8.32 10.15 7.94L10.15 7.94L10.15 6.41L10.15 6.21L10.15 6.03L10.15 5.89L10.15 5.89Q10.15 5.35 10.10 4.98L10.10 4.98L10.10 4.98Q10.10 4.72 10.08 4.52L10.08 4.52L10.08 4.52Q10.06 4.31 10.02 4.21L10.02 4.21L9.14 4.04L9.14 3.55L9.14 3.55Q9.46 3.51 9.73 3.49L9.73 3.49L9.73 3.49Q10.00 3.46 10.22 3.41L10.22 3.41L11.32 3.17L11.93 3.17L11.82 4.22L11.80 5.09ZM14.07 1.22L13.19 1.05L13.19 0.56L15.36 0.20L15.98 0.20L15.87 1.25L15.85 2.12L15.85 7.94L15.85 7.94Q15.85 8.35 15.86 8.72L15.86 8.72L15.86 8.72Q15.87 9.08 15.92 9.53L15.92 9.53L15.92 9.53Q15.97 9.98 15.99 10.04L15.99 10.04L16.74 10.20L16.74 10.68L15.02 10.64L13.31 10.68L13.31 10.20L14.05 10.04L14.05 10.04Q14.07 10.02 14.10 9.84L14.10 9.84L14.10 9.84Q14.13 9.66 14.13 9.39L14.13 9.39L14.13 9.39Q14.15 9.09 14.18 8.70L14.18 8.70L14.18 8.70Q14.20 8.32 14.20 7.94L14.20 7.94L14.20 3.42L14.20 3.42Q14.20 3.13 14.18 2.78L14.18 2.78L14.18 2.78Q14.17 2.42 14.15 1.99L14.15 1.99L14.15 1.99Q14.15 1.73 14.13 1.53L14.13 1.53L14.13 1.53Q14.11 1.32 14.07 1.22L14.07 1.22ZM20.42 4.22L20.42 4.22L20.42 4.22Q19.70 4.22 19.22 4.74L19.22 4.74L19.22 4.74Q18.75 5.27 18.75 6.08L18.75 6.08L18.75 6.08Q18.75 6.87 19.21 7.38L19.21 7.38L19.21 7.38Q19.67 7.88 20.42 7.88L20.42 7.88L20.42 7.88Q21.11 7.88 21.61 7.36L21.61 7.36L21.61 7.36Q21.85 7.10 21.98 6.78L21.98 6.78L21.98 6.78Q22.10 6.46 22.10 6.08L22.10 6.08L22.10 6.08Q22.10 5.22 21.65 4.73L21.65 4.73L21.65 4.73Q21.22 4.22 20.42 4.22ZM17.07 6.05L17.07 6.05L17.07 6.05Q17.07 4.87 18.02 4.11L18.02 4.11L18.02 4.11Q18.97 3.35 20.42 3.35L20.42 3.35L20.42 3.35Q20.55 3.35 20.68 3.35L20.68 3.35L20.68 3.35Q20.82 3.35 20.93 3.38L20.93 3.38L20.98 3.40L21.40 3.46L21.40 3.46Q21.89 3.54 22.23 3.59L22.23 3.59L22.23 3.59Q22.57 3.63 22.90 3.67L22.90 3.67L22.90 3.67Q23.25 3.67 23.78 3.70L23.78 3.70L23.78 3.70Q24.32 3.73 24.41 3.73L24.41 3.73L24.43 3.96L24.43 4.21L23.96 4.33L23.96 4.33Q23.78 4.37 23.59 4.41L23.59 4.41L23.59 4.41Q23.39 4.44 23.23 4.44L23.23 4.44L23.14 4.44L23.14 4.44Q23.77 5.10 23.77 6.05L23.77 6.05L23.77 6.05Q23.77 7.15 22.80 7.94L22.80 7.94L22.80 7.94Q21.83 8.73 20.42 8.73L20.42 8.73L20.42 8.73Q19.62 8.73 19.22 8.60L19.22 8.60L19.22 8.60Q19.22 8.67 18.99 9.11L18.99 9.11L18.99 9.11Q18.87 9.38 18.81 9.59L18.81 9.59L18.81 9.59Q18.75 9.79 18.75 9.98L18.75 9.98L19.12 9.87L19.12 9.87Q19.36 9.78 19.71 9.74L19.71 9.74L19.71 9.74Q20.06 9.70 20.62 9.70L20.62 9.70L20.62 9.70Q22.10 9.70 23.13 10.21L23.13 10.21L23.13 10.21Q24.16 10.71 24.16 11.78L24.16 11.78L24.16 11.78Q24.16 12.92 22.95 13.67L22.95 13.67L22.95 13.67Q21.74 14.42 20.16 14.42L20.16 14.42L20.16 14.42Q18.74 14.42 17.81 13.86L17.81 13.86L17.81 13.86Q16.87 13.30 16.87 12.49L16.87 12.49L16.87 12.49Q16.87 12.09 17.05 11.83L17.05 11.83L17.05 11.83Q17.15 11.71 17.24 11.61L17.24 11.61L17.24 11.61Q17.29 11.55 17.47 11.40L17.47 11.40L18.29 11.87L18.19 12.11L18.19 12.11Q18.19 12.55 18.86 13.01L18.86 13.01L18.86 13.01Q19.21 13.24 19.66 13.36L19.66 13.36L19.66 13.36Q20.11 13.48 20.72 13.48L20.72 13.48L20.72 13.48Q21.33 13.48 21.89 13.16L21.89 13.16L21.89 13.16Q22.46 12.84 22.46 12.31L22.46 12.31L22.46 12.31Q22.46 11.64 21.51 11.27L21.51 11.27L21.51 11.27Q21.11 11.12 20.45 11.12L20.45 11.12L20.45 11.12Q20.03 11.12 19.53 11.18L19.53 11.18L19.53 11.18Q19.03 11.25 18.46 11.38L18.46 11.38L17.54 10.40L17.54 10.40Q17.54 10.27 17.94 9.37L17.94 9.37L17.94 9.37Q18.35 8.47 18.38 8.32L18.38 8.32L17.97 8.04L17.97 8.04Q17.07 7.33 17.07 6.05ZM25.89 1.12L25.89 1.12L25.89 1.12Q25.89 0.73 26.18 0.44L26.18 0.44L26.18 0.44Q26.46 0.15 26.86 0.15L26.86 0.15L26.86 0.15Q27.25 0.15 27.54 0.44L27.54 0.44L27.54 0.44Q27.82 0.73 27.82 1.12L27.82 1.12L27.82 1.12Q27.82 1.53 27.54 1.81L27.54 1.81L27.54 1.81Q27.25 2.10 26.86 2.10L26.86 2.10L26.86 2.10Q26.46 2.10 26.18 1.81L26.18 1.81L26.18 1.81Q25.89 1.53 25.89 1.12ZM27.68 5.09L27.68 7.94L27.68 7.94Q27.68 8.35 27.69 8.72L27.69 8.72L27.69 8.72Q27.70 9.08 27.75 9.53L27.75 9.53L27.75 9.53Q27.80 9.98 27.82 10.04L27.82 10.04L28.57 10.20L28.57 10.68L26.86 10.64L25.14 10.68L25.14 10.20L25.89 10.04L25.96 9.39L25.96 9.39Q25.99 9.09 26.01 8.70L26.01 8.70L26.01 8.70Q26.03 8.32 26.03 7.94L26.03 7.94L26.03 6.41L26.03 6.21L26.03 6.03L26.03 5.89L26.03 5.89Q26.03 5.35 25.99 4.98L25.99 4.98L25.99 4.98Q25.99 4.72 25.96 4.52L25.96 4.52L25.96 4.52Q25.94 4.31 25.90 4.21L25.90 4.21L25.02 4.04L25.02 3.55L25.02 3.55Q25.34 3.51 25.61 3.49L25.61 3.49L25.61 3.49Q25.88 3.46 26.11 3.41L26.11 3.41L27.20 3.17L27.81 3.17L27.70 4.22L27.68 5.09ZM29.95 1.22L29.07 1.05L29.07 0.56L31.24 0.20L31.86 0.20L31.75 1.25L31.73 2.12L31.73 7.94L31.73 7.94Q31.73 8.35 31.74 8.72L31.74 8.72L31.74 8.72Q31.75 9.08 31.80 9.53L31.80 9.53L31.80 9.53Q31.85 9.98 31.87 10.04L31.87 10.04L32.62 10.20L32.62 10.68L30.91 10.64L29.19 10.68L29.19 10.20L29.93 10.04L29.93 10.04Q29.95 10.02 29.98 9.84L29.98 9.84L29.98 9.84Q30.01 9.66 30.01 9.39L30.01 9.39L30.01 9.39Q30.04 9.09 30.06 8.70L30.06 8.70L30.06 8.70Q30.09 8.32 30.09 7.94L30.09 7.94L30.09 3.42L30.09 3.42Q30.09 3.13 30.07 2.78L30.07 2.78L30.07 2.78Q30.05 2.42 30.04 1.99L30.04 1.99L30.04 1.99Q30.04 1.73 30.01 1.53L30.01 1.53L30.01 1.53Q29.99 1.32 29.95 1.22L29.95 1.22ZM34.02 1.12L34.02 1.12L34.02 1.12Q34.02 0.73 34.30 0.44L34.30 0.44L34.30 0.44Q34.59 0.15 34.98 0.15L34.98 0.15L34.98 0.15Q35.38 0.15 35.66 0.44L35.66 0.44L35.66 0.44Q35.95 0.73 35.95 1.12L35.95 1.12L35.95 1.12Q35.95 1.53 35.66 1.81L35.66 1.81L35.66 1.81Q35.38 2.10 34.98 2.10L34.98 2.10L34.98 2.10Q34.59 2.10 34.30 1.81L34.30 1.81L34.30 1.81Q34.02 1.53 34.02 1.12ZM35.80 5.09L35.80 7.94L35.80 7.94Q35.80 8.35 35.82 8.72L35.82 8.72L35.82 8.72Q35.83 9.08 35.88 9.53L35.88 9.53L35.88 9.53Q35.92 9.98 35.95 10.04L35.95 10.04L36.70 10.20L36.70 10.68L34.98 10.64L33.27 10.68L33.27 10.20L34.02 10.04L34.09 9.39L34.09 9.39Q34.11 9.09 34.14 8.70L34.14 8.70L34.14 8.70Q34.16 8.32 34.16 7.94L34.16 7.94L34.16 6.41L34.16 6.21L34.16 6.03L34.16 5.89L34.16 5.89Q34.16 5.35 34.11 4.98L34.11 4.98L34.11 4.98Q34.11 4.72 34.09 4.52L34.09 4.52L34.09 4.52Q34.06 4.31 34.03 4.21L34.03 4.21L33.15 4.04L33.15 3.55L33.15 3.55Q33.47 3.51 33.74 3.49L33.74 3.49L33.74 3.49Q34.01 3.46 34.23 3.41L34.23 3.41L35.33 3.17L35.94 3.17L35.83 4.22L35.80 5.09ZM39.46 2.12L39.46 4.24L39.46 4.24Q39.95 3.68 40.51 3.45L40.51 3.45L40.51 3.45Q41.07 3.22 41.64 3.22L41.64 3.22L41.64 3.22Q42.99 3.22 43.79 4.22L43.79 4.22L43.79 4.22Q44.59 5.23 44.59 6.87L44.59 6.87L44.59 6.87Q44.59 8.57 43.44 9.70L43.44 9.70L43.44 9.70Q42.30 10.84 40.59 10.84L40.59 10.84L40.59 10.84Q40.34 10.84 40.07 10.82L40.07 10.82L40.07 10.82Q39.80 10.81 39.51 10.77L39.51 10.77L39.51 10.77Q39.22 10.72 38.94 10.68L38.94 10.68L38.94 10.68Q38.65 10.64 38.45 10.64L38.45 10.64L38.26 10.64L37.32 10.68L37.70 10.04L37.70 10.04Q37.72 9.98 37.75 9.78L37.75 9.78L37.75 9.78Q37.77 9.57 37.77 9.45L37.77 9.45L37.83 8.16L37.83 3.42L37.83 3.22L37.83 3.05L37.83 2.91L37.83 2.91Q37.83 2.67 37.82 2.43L37.82 2.43L37.82 2.43Q37.81 2.19 37.77 1.99L37.77 1.99L37.70 1.22L36.82 1.05L36.82 0.56L38.97 0.20L39.59 0.20L39.49 1.25L39.46 2.12ZM39.46 6.29L39.46 6.29L39.46 9.50L39.46 9.50Q39.46 9.62 39.94 9.81L39.94 9.81L39.94 9.81Q40.19 9.89 40.45 9.93L40.45 9.93L40.45 9.93Q40.70 9.97 40.96 9.97L40.96 9.97L40.96 9.97Q41.75 9.97 42.29 9.15L42.29 9.15L42.29 9.15Q42.83 8.33 42.83 7.15L42.83 7.15L42.83 7.15Q42.83 6.49 42.71 6.03L42.71 6.03L42.71 6.03Q42.58 5.56 42.30 5.16L42.30 5.16L42.30 5.16Q41.77 4.40 40.87 4.40L40.87 4.40L40.87 4.40Q40.17 4.40 39.81 4.88L39.81 4.88L39.81 4.88Q39.46 5.36 39.46 6.29Z"></path></g><defs data-v-fde0c5aa=""><!----></defs><g data-v-fde0c5aa="" id="78f9193e-c469-457e-8f11-eff544d589cd" stroke="none" fill="#ffffff" transform="matrix(0.7191088987824141,0,0,0.7191088987824141,38.83144803947858,112.17189049587331)"><switch><g><path d="M18.375 89.321h13.274v-64.43H18.375v64.43zM31.651 16.417c0-.55-.45-1-1-1H19.375c-.55 0-1 .45-1 1v7.495h13.276v-7.495zM18.375 97.786c0 .549.45 1 1 1h11.276c.55 0 1-.451 1-1v-7.495H18.375v7.495zM79.329 84.021l15.997-2.99-9.436-50.494-15.998 2.99 9.437 50.494zM83.035 15.251a1.004 1.004 0 0 0-1.168-.799l-14.032 2.623a1.004 1.004 0 0 0-.801 1.166l2.678 14.323 15.999-2.99-2.676-14.323zM81.983 98.225c.101.541.625.9 1.166.801L97.184 96.4c.54-.101.9-.627.8-1.166l-2.477-13.252-16.001 2.992 2.477 13.251zM48.667 20.155H35c-.55 0-1 .45-1 1v76.631c0 .549.45 1 1 1h13.667c.55 0 1-.451 1-1V21.155c0-.55-.45-1-1-1zM47.542 72.5H36.125v-23h11.417v23zM1.626 83.405h13.873v-62.76H1.626v62.76zM15.5 7.567c0-.55-.45-1-1-1H2.625c-.55 0-1 .45-1 1v12.098H15.5V7.567zM1.625 97.786c0 .549.45 1 1 1H14.5c.55 0 1-.451 1-1V84.375H1.625v13.411zM54.588 83.567l13.854-.716-3.239-62.677-13.854.716 3.239 62.677zM64.529 7.115a1.004 1.004 0 0 0-1.05-.948l-11.859.614a1.002 1.002 0 0 0-.947 1.05l.624 12.082 13.856-.716-.624-12.082zM55.329 97.93c.028.548.502.975 1.051.947l11.859-.613c.549-.029.975-.502.946-1.05l-.692-13.394-13.856.716.692 13.394z"></path></g></switch></g><!----></svg>